# xmcd
#
# Track frame offsets:
#	150
#	15892
#	30895
#	47872
#	61842
#	76417
#
# Disc length: 1173
#
# Revision: 3
# Processed by: cddbd v1.5.1PL0 Copyright (c) Steve Scherf et al.
# Submitted via: DiscPlay 4.0.3
# Normalized: r1:TSWAP
#
DISCID=35049306
DTITLE=various Universal '97 #3 - Universal radio Compilation '97 #3
DYEAR=1900
DGENRE=
TTITLE0=Reba McEntire - I'd Rather Rider Around With You
TTITLE1=Tracy Byrd - Don't Love Make A Diamond Shine
TTITLE2=Big House - You Ain't Lonely Yet
TTITLE3=Trisha Yearwood - I Want To Live Again
TTITLE4=Gary Allan - From Where I'm Sitting
TTITLE5=Billy Yates - I Smell Smoke
EXTD=
EXTT0=
EXTT1=
EXTT2=
EXTT3=
EXTT4=
EXTT5=
PLAYORDER=
